<svg xmlns="http://www.w3.org/2000/svg" viewBox="0 0 32 32">
  <path d="M30.663 5.422a.496.496 0 0 0-.213-.523.504.504 0 0 0-.573.04l-7.79 6.273L16.595.66a.5.5 0 0 0-.89 0L10.211 11.21 2.422 4.939a.503.503 0 0 0-.573-.04.496.496 0 0 0-.213.523l5.882 25.418a.5.5 0 0 0 .478.388h16.51a.5.5 0 0 0 .478-.388l5.882-25.418h-.205z" fill="#ffc619"/>
  <path d="M24.088 11.212l-7.79-6.273-5.508 10.552-7.79-6.273 5.378 23.242h10.995l-5.385-23.242 7.79 6.273 5.508-10.552 7.79 6.273-5.385 23.242h-10.995l5.378-23.242z" fill="url(#a)"/>
  <defs>
    <linearGradient id="a" x1="6.166" y1="27.422" x2="25.834" y2="4.578" gradientUnits="userSpaceOnUse">
      <stop offset=".275" stop-color="#bd34fe"/>
      <stop offset=".984" stop-color="#41d1ff"/>
    </linearGradient>
  </defs>
</svg>